<svg width="512" height="512" viewBox="0 0 512 512" fill="none" xmlns="http://www.w3.org/2000/svg">
<g clip-path="url(#clip0_1_2)">
<rect width="512" height="512" fill="white"/>
<rect width="512" height="512" fill="#985F76"/>
<g clip-path="url(#clip1_1_2)">
<path d="M421.597 418.219V415.091L419.962 412.226L418.087 413.682C417.908 412.942 417.741 412.31 417.538 411.51L416.631 413.097C416.786 413.945 416.953 414.816 417.109 415.676L416.643 415.903L414.208 413.133L412.31 412.333C410.746 404.634 411.271 397.244 411.104 389.879C410.817 379.792 408.191 370.397 403.762 362.1L403.93 362.435C403.834 364.989 403.321 367.508 404.18 370.039C404.323 370.695 404.407 371.459 404.407 372.235C404.407 372.486 404.395 372.749 404.383 372.999V372.964C404.658 379.601 404.908 386.238 405.231 392.875C405.314 394.559 405.756 396.218 405.863 397.913C406.102 401.96 405.302 405.875 404.109 409.994L402.425 409.397L401.435 410.256L402.76 411.796L400.145 413.623L399.322 412.715L399.763 411.856L397.603 410.758L397.829 410.232L399.393 410.722L400.503 409.815C399.453 406.651 395.37 408.179 393.795 405.398L396.242 403.977C396.313 404.419 396.397 404.861 396.481 405.302L396.982 405.04L396.17 404.037C395.514 402.664 394.439 401.59 393.102 400.957L393.066 400.945C392.326 398.629 391.646 396.469 391.025 394.296C389.33 388.172 387.301 382.132 386.405 375.781C385.999 372.928 384.913 370.158 385.044 367.21C385.092 366.123 385.295 365.037 385.45 363.724H390.977C390.01 361.909 388.936 361.85 387.587 362.9L386.966 361.635L385.009 363.127C385.009 362.112 385.009 361.384 385.009 360.668C385.068 359.403 385.45 358.078 385.164 356.896C384.806 355.404 385.438 354.329 385.713 353.052C385.904 352.097 386.107 350.82 385.665 350.127C384.459 348.146 385.116 346.403 385.856 344.672C385.534 343.967 385.295 343.406 384.818 342.332L386.799 340.661L387.289 340.947C387.121 341.461 386.954 341.974 386.74 342.607L387.718 344.337H390.548C391.419 343.514 392.41 342.583 393.317 341.711L399.56 339.622L397.806 337.139L394.821 335.922L395.561 334.62L393.508 332.698L394.069 331.433L390.082 329.869C389.294 327.983 387.79 326.395 387.969 324.151L390.13 324.7L390.953 323.793L390.046 322.922L387.957 323.602V322.289L385.725 322.754C385.725 321.226 385.641 319.878 385.725 318.552C385.868 316.607 385.223 314.589 386.274 312.739C385.188 310.769 385.844 308.632 385.725 306.579C385.605 304.526 385.689 302.604 385.677 300.61C385.725 299.87 385.749 298.999 385.749 298.127C385.749 296.91 385.701 295.692 385.605 294.498L385.617 294.654C384.925 289.759 385.307 284.793 384.806 279.923C384.328 275.315 384.113 270.659 383.385 266.087C382.048 257.612 380.568 249.172 378.431 240.827C376.461 233.199 374.193 226.717 371.46 220.474L371.794 221.322C368.618 214.123 365.097 207.952 361.014 202.186L361.241 202.52C359.224 199.607 357.517 196.48 355.022 193.913C354.401 193.113 353.852 192.194 353.434 191.227L353.398 191.144C350.545 189.126 348.169 186.655 346.331 183.79L346.271 183.683L347.179 183.241C347 181.832 348.456 180.352 346.976 178.681L343.956 181.295C340.231 178.418 336.208 175.673 332.818 171.482C331.003 170.516 328.15 169.99 327.506 166.863L328.771 167.531C329.046 166.91 329.32 166.314 329.714 165.418L327.601 165.645V166.958L325.584 164.929C325.667 165.908 325.703 166.349 325.751 166.994C321.406 164.427 317.156 161.944 312.954 159.378C312.393 159.032 312.07 158.268 311.569 157.611L308.501 156.035C308.024 156.143 307.224 156.608 306.71 156.394C302.723 154.722 298.796 152.92 294.845 151.177L295.585 149.362C293.842 149.899 292.887 148.622 291.359 148.264L289.58 148.849V145.865L292.039 143.99H287.575L288.124 145.65L286.858 146.306L287.443 148.121L285.211 148.312C285.486 147.751 285.641 147.452 285.951 146.748C284.937 147.094 284.208 147.333 283.492 147.56L280.663 145.28L277.679 141.663C277.822 141.173 277.977 140.684 278.132 140.17L277.702 139.944C277.153 140.684 276.592 141.507 276.055 142.283C277.153 143.191 278.049 143.99 279.039 144.671C279.517 144.922 280.066 145.125 280.639 145.256L280.687 145.268C280.687 145.638 280.615 146.008 280.579 146.485C278.777 147.297 277.368 146.247 275.876 145.662C271.304 145.125 266.672 145.017 262.184 143.644L262.84 141.937L262.398 141.651L260.656 143.787L257.062 141.651L256.728 142.08L258.065 143.405C257.994 143.501 257.874 143.776 257.743 143.787C253.087 144.062 248.384 144.026 243.776 144.647C238.261 145.387 232.758 146.139 227.29 147.273C221.942 148.348 216.857 150.162 211.521 151.356C208.895 152.072 206.638 152.92 204.49 153.958L204.728 153.851C195.322 157.898 186.166 162.422 177.786 168.391C169.537 174.324 162.303 180.782 155.809 187.92L155.713 188.028C152.49 191.561 149.386 195.393 146.509 199.392L146.247 199.774C143.907 203.045 141.555 206.818 139.454 210.733L139.18 211.306C136.255 216.761 133.354 222.277 130.979 227.971C128.842 233.068 127.314 238.404 125.654 243.728C124.64 246.951 123.828 250.234 123.004 253.505C122.634 254.914 122.264 256.716 122.002 258.543L121.966 258.817C121.608 261.36 121.679 263.998 121.023 266.457C120.068 270.05 120.975 273.799 119.781 277.356C119.471 278.251 119.71 279.338 119.71 280.341C119.71 305.182 119.745 330.012 119.578 354.854V355.523C119.578 361.85 118.838 368.01 117.43 373.919L117.537 373.381C116.928 375.852 116.94 378.467 116.654 381.021C116.57 381.762 116.463 382.466 116.307 383.17C116.092 384.054 115.973 385.08 115.973 386.119C115.973 387.253 116.116 388.363 116.391 389.413L116.367 389.318C117.107 392.374 116.475 395.43 115.806 398.438C113.526 399.525 113.92 402.127 112.702 403.834C109.563 402.557 106.889 400.706 104.704 398.402L104.692 398.39C104.071 397.746 103.486 397.113 102.46 397.376L102.305 395.454L100.621 397.161L102.52 397.292C102.09 397.662 101.672 398.032 101.195 398.438L101.588 399.262L98.8547 400.241L99.5949 402.39L97.5536 404.67L95.3929 402.676C94.7721 403.798 94.414 405.135 94.414 406.556C94.414 407.654 94.6289 408.693 95.0228 409.648L94.9989 409.588L92.8024 410.734C91.5371 405.362 92.0623 399.775 90.021 394.379L88.111 395.466L88.9944 397.233L87.9558 402.533C87.1321 401.984 87.1321 401.984 87.5619 400.551L85.5444 398.319L83.0137 399.907C83.2644 400.647 83.4315 401.172 83.6106 401.733L82.6317 401.661L82.0467 399.548L80.1964 399.656C80.0651 401.411 81.6289 401.757 82.1781 402.807L81.6051 404.025L80.8649 404.765C78.8714 403.619 79.1698 401.339 78.7759 399.656C77.415 393.854 77.606 387.85 78.0716 381.976C78.2864 379.302 78.561 376.628 78.561 373.942C78.5968 362.148 78.561 350.342 78.561 338.536C78.5729 338.357 78.5849 338.154 78.5849 337.939C78.5849 336.817 78.3581 335.754 77.9641 334.787L77.988 334.847C77.7015 337.939 77.2001 341.019 77.1643 344.111C77.0449 353.434 77.1166 362.745 77.0688 372.068C77.0688 373.25 76.8301 374.444 76.6629 375.996C77.5463 377.548 77.0927 379.684 77.033 381.726C77.033 382.728 76.4003 383.707 76.0183 384.782C73.1533 384.28 71.7327 382.251 70.539 380.365C69.202 378.252 68.4141 375.769 67.5069 373.405C67.3278 372.94 67.7098 372.271 67.8889 371.471C66.6474 369.132 65.9192 366.35 65.9192 363.402C65.9192 363.02 65.9311 362.638 65.955 362.256V362.303L69.6795 361.086C69.2497 360.131 68.8319 359.188 68.3544 358.161L66.1221 357.6C66.0505 357.314 65.9431 356.979 65.8714 356.633C65.5611 355.511 65.3104 354.174 65.2029 352.813L65.191 352.73C65.1433 339.431 64.7851 326.121 65.3462 312.858C65.6327 306.078 65.382 299.273 66.0505 292.529C66.4206 288.721 66.2773 284.901 66.7309 281.14C67.3994 275.673 67.6143 270.17 68.2231 264.691C68.7245 259.868 69.8705 255.105 70.2525 250.27C70.6584 245.137 71.8521 240.183 72.7116 235.145C73.2966 231.719 74.4068 228.389 75.2663 225.01C75.6602 223.852 76.0183 222.444 76.269 220.999L76.2929 220.832C76.7704 215.962 78.5252 211.437 80.1009 206.889C83.9926 195.548 89.2212 184.888 96.5508 175.302C99.8814 170.933 102.842 166.278 106.172 161.885C109.061 158.077 112.141 154.424 115.281 150.807C118.026 147.655 120.832 144.504 123.828 141.567C134.046 131.564 145.399 122.646 157.659 115.054L158.494 114.576C163.687 111.341 169.931 107.963 176.377 104.943L177.547 104.453C181.797 102.496 187.288 100.371 192.91 98.5205L194.128 98.1743C198.163 96.6702 203.38 95.1064 208.704 93.8291L209.742 93.6142C213.037 92.8741 216.284 91.9191 219.686 91.5371C223.649 91.0954 227.565 90.1762 231.492 89.4599C231.743 89.4122 231.994 89.4599 232.232 89.4599C242.726 88.4214 253.254 88.6363 263.759 88.6959C267.639 90.1165 271.781 88.8869 275.745 89.9971C278.037 90.6418 280.579 90.2836 283.015 90.785C287.885 91.7878 292.911 92.0862 297.745 93.2322C306.854 95.2616 314.506 97.5416 321.943 100.275L320.642 99.8575C332.281 104.155 342.225 109.002 351.595 114.684L350.796 114.23C356.717 117.823 361.73 121.309 366.541 125.058L366.183 124.783C371.042 128.555 375.542 132.793 380.055 136.971C383.516 140.182 386.763 143.608 390.094 146.963C394.344 151.248 397.985 156.047 401.805 160.727C406.222 166.158 410.233 171.853 414.088 177.678C419.054 185.199 423.973 192.719 427.757 200.944C430.944 207.784 433.917 215.938 436.209 224.378L436.459 225.476C437.82 230.466 439.074 235.491 440.124 240.565C440.864 244.122 440.96 247.811 441.771 251.344C442.714 255.463 442.356 259.796 443.872 263.819C443.908 263.986 443.92 264.177 443.92 264.38C443.92 264.583 443.908 264.774 443.872 264.953V264.929C443.896 269.704 444.445 274.324 445.448 278.777L445.365 278.347C445.377 278.407 445.377 278.466 445.377 278.526C445.377 278.586 445.377 278.657 445.365 278.717C445.639 283.886 445.794 289.043 446.188 294.188C446.725 301.339 447.024 309.671 447.024 318.063C447.024 323.101 446.916 328.114 446.702 333.104L446.725 332.388C446.499 339.037 446.546 345.71 445.985 352.324C445.687 355.881 445.842 359.474 445.281 362.96C444.541 367.628 444.493 372.379 443.228 376.987C442.619 378.944 441.831 380.639 440.84 382.203L440.888 382.12C438.656 383.039 436.996 381.869 434.991 380.962C434.478 381.75 433.976 382.657 433.546 383.612L433.499 383.731C432.735 385.999 432.174 388.649 431.923 391.383L431.911 391.514C431.326 396.182 431.72 400.897 431.111 405.493C430.55 409.731 430.729 414.279 427.852 418.052L426.456 416.774L424.116 418.541L421.549 418.159L421.597 418.219ZM85.2579 391.371L84.0522 389.807C83.5628 391.491 84.4939 391.335 85.3296 391.3C85.2937 391.431 85.2699 391.586 85.2699 391.741C85.2699 392.577 85.8667 393.269 86.6546 393.424H86.6666C86.6666 393.019 86.7382 392.577 86.5591 392.398C86.1652 392.028 85.7354 391.682 85.2818 391.383L85.246 391.359L85.2579 391.371ZM90.4746 390.595C90.5821 389.031 89.5674 388.423 88.0991 387.706C88.3497 389.031 89.257 390.106 90.4627 390.583L90.4746 390.595L90.0926 391.479L93.0054 395.573L93.1725 392.744L90.4746 390.595ZM97.2432 387.647L95.3332 385.964V391.359L96.515 392.374C96.7418 390.571 97.3626 389.163 97.1596 387.563C98.1624 387.694 98.9144 387.432 99.3203 386.071L97.2432 386.322V387.647ZM98.6876 396.457L99.7501 396.504C101.242 394.964 100.813 393.162 100.49 391.049L98.0072 390.559L98.5324 391.813L97.2551 392.362C98.3176 393.305 98.998 394.403 98.7473 395.848L96.3359 395.06L94.5573 396.027L95.2258 399.274L97.9833 398.379L97.5177 396.624L98.6876 396.457ZM393.198 354.771C394.63 354.269 393.747 353.577 393.472 353.135C393.783 351.846 394.033 350.724 394.403 349.196L396.17 351.13L397.746 350.306C397.818 350.748 397.889 351.178 397.961 351.619L398.438 351.381L397.65 350.39C397.018 349.387 396.373 348.396 395.669 347.31L393.365 347.835L392.171 346.773L388.924 349.303L389.664 350.402L387.432 352.24V355.63L392.422 357.612L393.198 354.771ZM94.7602 383.492C93.6977 382.919 92.6831 382.072 90.8208 381.881L93.9246 385.343L94.7602 383.492ZM87.0247 386.978L87.6216 386.334C86.3204 385.749 85.8429 384.197 84.2194 383.827L83.8135 384.865L87.0247 386.978ZM287.276 140.779C285.951 141.233 285.187 139.06 283.886 140.326C284.686 141.233 285.45 142.08 286.238 142.976C286.488 142.403 286.751 141.878 287.264 140.779H287.276ZM321.74 161.765L324.402 164.702C324.402 162.147 324.402 162.147 321.74 161.777V161.765ZM251.297 135.957C251.834 137.819 252.287 138.595 254.245 138.463L251.297 135.957ZM349.423 180.973L350.032 180.567L348.874 178.967L348.384 179.29L349.423 180.973ZM393.604 343.215L394.666 344.242L395.872 342.786L393.604 343.215ZM402.163 408.454C401.697 407.535 401.423 406.962 400.862 405.911V408.311L402.163 408.454ZM428.998 411.701L428.258 411.737C428.318 412.596 428.389 413.456 428.449 414.315H428.867L428.998 411.701ZM411.88 180.853L411.379 180.471L410.519 181.486L410.841 181.808L411.88 180.853ZM223.506 120.688L223.852 120.283L222.814 119.304L222.408 119.745L223.506 120.688ZM71.0165 311.056L70.3838 311.103L70.6823 312.751H71.0165V311.056ZM390.583 327.136C390.082 328.461 390.583 328.664 391.908 328.628L390.583 327.136ZM434.8 348.551C436.209 348.921 436.579 348.599 436.256 347.011L434.8 348.551ZM432.341 352.55C432.735 352.121 433.081 351.81 433.702 351.106C432.198 351.07 431.744 351.333 432.317 352.527L432.341 352.55ZM101.469 392.816C102.734 392.684 103.606 392.816 102.746 391.431L101.469 392.816ZM73.8815 312.799V312.405L72.8191 312.512V312.858L73.8815 312.799ZM226.849 116.737L226.801 116.343L225.667 116.475L225.727 116.904L226.849 116.737ZM195.035 150.699V151.105L196.157 150.998V150.604L195.035 150.699ZM199.297 151.034L199.261 150.652L198.103 150.759L198.139 151.153L199.297 151.034ZM85.8429 395.884L85.437 395.931L85.5444 397.113L86.01 397.065L85.8429 395.884ZM316.941 154.376H316.654V155.594H316.941V154.376ZM402.067 173.392V173.058L400.85 172.999V173.392H402.067ZM403.81 173.082V173.404H405.016V173.082H403.81ZM93.6858 399.429L94.1156 399.381L93.9723 398.235L93.5545 398.283L93.6858 399.429ZM425.345 231.54L426.014 231.492C425.942 231.122 425.871 230.752 425.811 230.37H425.513L425.345 231.54ZM401.327 178.108C401.041 178.418 400.766 178.609 400.802 178.693C400.921 178.908 401.076 179.099 401.244 179.254C401.232 178.931 401.256 178.609 401.327 178.108ZM402.163 395.919C402.521 396.242 402.724 396.504 402.807 396.469C403.034 396.337 403.225 396.194 403.392 396.003L402.163 395.919ZM418.41 407.105L418.016 407.153L418.123 408.275L418.553 408.227L418.41 407.105ZM414.805 410.985H414.172C414.232 411.355 414.279 411.725 414.339 412.107H414.661L414.805 410.985ZM425.119 410.794L424.713 410.841L424.832 411.999L425.274 411.951L425.119 410.794ZM392.302 361.587L391.92 361.623L392.028 362.769L392.458 362.721L392.302 361.587ZM72.1028 315.043L72.4848 314.995L72.3535 313.992L71.9834 314.04L72.1028 315.043Z" fill="white"/>
<path d="M158.399 408.514H156.214L156.692 409.588L155.844 411.247C155.021 410.662 155.104 408.848 153.302 409.445C152.765 411.307 155.259 411.486 155.319 413.289L153.206 413.754C150.711 412.357 150.317 410.077 150.222 407.75C150.114 405.147 150.174 402.533 150.222 399.93C150.21 394.929 149.494 390.094 148.169 385.522L148.264 385.892C147.822 384.352 147.476 382.538 147.309 380.663L147.297 380.544C146.951 376.879 146.76 373.202 146.473 369.538C145.924 362.065 145.614 353.362 145.614 344.576C145.614 339.658 145.709 334.752 145.9 329.881L145.877 330.586C146.068 324.306 146.08 317.991 146.617 311.748C146.939 308.059 146.748 304.347 147.297 300.73C148.181 294.988 148.789 289.21 149.947 283.48C152.012 273.859 154.4 265.705 157.313 257.791L156.895 259.092C158.578 254.257 160.978 249.745 163.198 245.161C167.197 237.031 171.674 230.036 176.807 223.602L176.628 223.84C184.375 214.099 193.495 205.874 203.773 199.309L204.215 199.046C211.413 194.701 219.018 191.156 227.278 189.353C231.994 188.314 236.745 187.156 241.627 187.121C246.51 187.085 251.368 186.691 256.131 187.288C261.993 187.885 267.233 188.804 272.354 190.045L271.543 189.878C276.103 191.072 280.639 192.278 285.116 193.746C286.87 194.319 287.67 195.656 288.589 196.957C288.745 197.184 288.458 197.697 288.363 198.211C289.926 199.476 291.633 200.347 293.83 200.037C293.961 200.562 294.105 201.135 294.272 201.875H296.731L299.059 199.739L302.509 201.899L300.873 203.344L302.365 204.382L303.619 202.568L304.848 204.06L305.708 203.606C308.334 205.492 311.139 207.379 313.801 209.444C318.66 213.168 323.495 216.988 327.183 222.026C329.141 224.7 331.421 227.123 333.355 229.809C335.229 232.328 337.151 235.217 338.906 238.213L339.157 238.667C343.251 245.662 346.773 253.744 349.304 262.255L349.506 263.043C350.748 266.887 351.954 271.746 352.861 276.712L352.98 277.488C353.888 283.003 354.878 288.482 355.26 294.069C355.38 295.847 355.821 297.614 356.168 299.62C354.329 299.238 353.935 297.149 352.192 297.507C351.822 297.041 351.452 296.564 350.987 295.943C350.461 297.566 351.345 297.507 352.204 297.483L355.798 301.601C356.538 307.391 357.146 313.491 356.263 319.639L353.589 320.63L354.795 322.122L356.526 321.382V332.293C356.036 332.352 355.607 332.436 355.189 332.543L355.26 332.531C354.854 332.722 354.508 332.925 354.198 333.164L354.21 333.152L356.669 335.014C356.418 336.853 357.206 338.739 356 340.434C357.326 342.666 355.69 344.911 355.929 347.191C356.012 348.193 356.06 349.363 356.06 350.545C356.06 351.727 356.012 352.897 355.929 354.055L355.941 353.899C355.774 357.326 355.427 360.752 355.296 364.178C355.165 367.604 355.571 371.185 355.117 374.611C354.329 380.58 353.625 386.596 351.81 392.434C350.903 395.311 349.709 398.068 348.981 400.933L347.752 401.076C347.226 399.835 346.689 398.593 346.176 397.4L345.03 397.901C341.461 394.332 341.461 394.332 338.369 393.21L344.075 399.632C342.833 401.447 343.287 403.01 343.597 404.968L345.519 400.563L347.752 401.029C347.752 401.399 347.692 401.769 347.656 402.211L346.391 402.819L346.821 403.75L345.746 404.204L346.248 405.804L345.4 406.699C344.385 407.356 343.526 405.816 342.547 406.866C342.38 407.057 341.15 406.281 340.41 405.959L341.15 404.705C338.512 401.53 336.327 397.853 332.448 395.86L331.708 396.481C329.869 394.773 328.473 392.613 327.685 390.178L327.661 390.07C327.541 389.581 327.303 389.163 326.98 388.829C324.235 386.322 323.841 382.8 323.316 379.529C322.42 374.002 322.086 368.344 321.513 362.781C320.534 353.374 321.465 344.003 320.845 334.608C321.334 333.976 321.788 333.403 322.289 332.782C321.895 332.543 321.501 332.316 321.31 332.209C321.441 331.469 321.549 330.574 321.609 329.666V329.607C321.656 320.797 321.704 311.975 321.609 303.165C321.609 300.992 321.107 298.832 320.94 296.635C320.892 294.415 320.665 292.278 320.283 290.201L320.319 290.452C319.77 288.112 319.878 285.629 319.519 283.194C318.027 272.796 315.735 262.673 310.459 253.469C308.955 250.903 307.319 248.67 305.469 246.641L305.493 246.677C299.655 240.266 293.15 234.644 286.035 229.857L285.653 229.618C278.884 225.094 271.376 222.444 263.759 220.008C261.479 219.268 258.925 219.4 256.501 219.089C254.938 218.898 253.362 218.349 251.822 218.48C246.235 218.862 240.636 219.101 235.181 220.617C230.346 221.859 226.156 223.423 222.181 225.345L222.587 225.165C216.714 228.15 210.984 231.433 206.054 235.897C203.869 237.891 201.541 239.741 199.476 241.866C193.34 248.062 188.147 255.212 184.148 263.067L183.921 263.545C182.143 267.245 180.77 271.543 180.03 276.043L179.994 276.318C178.191 286.453 178.597 296.695 178.573 306.89C178.573 332.591 178.573 358.304 178.478 383.994C178.347 389.366 177.117 394.427 174.98 398.987L175.076 398.761C174.944 399.071 174.562 399.262 174.133 399.668L172.414 398.295L173.094 396.839L164.033 391.252L162.911 392.47L165.06 393.532L168.677 397.734L167.352 398.295C167.543 398.82 167.686 399.417 167.758 400.05V400.086C167.686 400.718 167.543 401.303 167.34 401.852L167.352 401.805L165.776 401.124C166.051 400.444 166.302 399.763 166.636 398.892C165.144 399.238 165.144 399.238 164.344 400.336C162.589 398.2 160.918 395.979 158.375 394.523L158.912 392.995L157.886 392.052L156.692 395.179L160.906 397.949C161.276 398.57 161.658 399.322 161.992 400.098L162.052 400.241C162.243 400.814 162.398 401.518 162.517 402.234L162.529 402.318L161.419 402.855L163.186 403.774L160.596 404.729C160.619 404.61 160.643 404.467 160.643 404.323C160.643 403.416 159.987 402.652 159.115 402.497C158.865 400.384 157.48 399.393 155.236 398.57C156.477 400.432 157.229 402.055 159.139 402.473C159.115 402.593 159.091 402.736 159.091 402.879C159.091 403.786 159.748 404.55 160.619 404.705C161.049 405.446 161.491 406.269 161.933 407.045L162.673 406.568L162.291 405.923L164.189 404.073C165.335 403.906 164.929 406.353 166.421 405.159L165.955 404.252L167.269 403.571V401.745L168.761 404.061L168.832 403.977L165.8 408.788L160.989 411.319L158.339 408.454H161.133L159.294 407.463C159.497 406.938 159.7 406.424 159.963 405.756L158.423 405.553L158.399 408.514ZM350.7 301.9C350.473 301.1 350.127 300.778 349.256 301.816H350.748C350.748 302.437 350.473 303.201 351.488 303.308L352.98 305.266C352.813 304.275 352.873 303.774 352.706 303.702C352.336 303.547 351.894 303.44 351.452 303.392H351.428C351.369 302.795 351.691 302.031 350.7 301.9ZM150.198 386.095C150.413 386.907 150.783 387.193 151.619 386.262L150.126 386.178L149.9 384.877L149.41 385.128L150.198 386.095ZM349.196 314.589C349.065 312.154 349.077 312.154 346.677 311.796L349.268 314.518C349.077 314.924 348.886 315.341 348.671 315.795L349.697 316.666L350.282 315.473L352.897 316.619C352.944 315.676 352.992 314.959 353.028 314.243L354.329 313.324L353.124 312.775L353.601 311.521L352.157 311.617L351.643 310.495L349.614 312.261H351.524C350.744 313.025 349.968 313.789 349.196 314.553V314.589ZM335.563 300.563C336.172 298.724 336.626 297.363 337.056 296.003L336.447 295.8L335.062 298.486C333.045 296.755 331.338 295.251 329.535 293.794C329.069 293.472 328.532 293.173 327.971 292.935L327.912 292.911L327.613 293.376L335.563 300.563ZM352.992 322.85C353.517 323.805 353.935 324.593 354.377 325.393L353.828 326.276L355.034 326.384V322.862L352.992 322.85ZM346.462 317.347C344.564 317.729 344.708 318.839 344.743 319.878L346.462 317.347ZM158.769 364.464L158.339 364.894L159.139 365.873L159.76 365.252L158.769 364.464ZM355.607 315.962L354.341 317.418C355.738 317.49 356.168 317.18 355.63 315.998L355.607 315.962ZM308.394 208.823V209.181H310.268V208.823H308.394ZM352.813 308.059L352.216 308.107C352.3 308.668 352.383 309.241 352.479 309.802H352.813V308.059ZM326.586 292.23C326.67 291.765 326.873 291.275 326.754 291.168C326.252 290.881 325.679 290.643 325.07 290.476L325.023 290.464L326.586 292.23ZM159.378 390.655V391.312L160.488 391.156V390.834L159.378 390.655ZM164.439 396.003L164.487 396.421L165.609 396.29L165.562 395.86L164.439 396.003ZM338.226 301.78C337.736 301.398 337.533 301.16 337.426 301.183C337.211 301.255 337.044 301.482 336.865 301.649L338.226 301.78ZM169.322 301.649L169.25 301.195L168.247 301.386L168.307 301.768L169.322 301.649ZM354.986 327.744L354.902 327.279L353.923 327.494L354.007 327.9L354.986 327.744ZM154.913 403.321V403.989L156.012 403.822V403.512L154.913 403.321ZM162.577 362.232V361.575L161.455 361.766V362.077L162.577 362.232Z" fill="white"/>
<path d="M284.757 302.688L285.796 304.681V309.611L284.125 310.662C284.125 312.047 284.387 313.264 284.053 314.303C283.719 315.341 283.217 316.678 281.534 316.941V317.144C281.534 318.958 280.818 320.618 279.66 321.835C274.945 326.897 269.788 331.361 263.449 334.346C258.399 336.733 253.183 338.309 247.572 337.581C239.705 336.686 232.722 333.486 227.171 328.687L227.219 328.723C221.68 323.924 218.719 317.765 217.418 310.829C216.809 307.582 217.191 304.12 217.215 300.801C217.215 293.341 219.829 286.751 224.389 280.902C230.227 273.393 238.165 268.976 246.987 266.183C251.344 264.786 255.928 264.094 260.405 263.151C260.942 263.103 261.575 263.079 262.207 263.079C262.84 263.079 263.473 263.103 264.094 263.163H264.01C259.677 265.98 258.006 269.776 256.478 274.002C264.679 274.646 270.814 278.717 276.27 283.91C280.305 287.634 283.253 292.469 284.662 297.924L284.71 298.127C285.02 299.452 284.757 300.909 284.757 302.711V302.688ZM250.855 286.178C250.783 287.026 250.855 287.801 252.466 287.563L250.771 286.273C250.258 285.259 249.47 284.447 248.515 283.898L248.491 283.886C248.861 285.665 249.53 286.321 250.855 286.178ZM277.702 292.887C277.571 294.522 278.693 295.239 279.935 295.871C280.305 296.898 280.675 297.924 281.081 299.082L282.382 298.283C281.678 297.256 281.057 296.325 279.899 295.895C279.935 294.319 278.884 293.543 277.667 292.911C277.082 291.705 276.377 290.678 274.467 290.726C275.613 291.789 276.139 293.126 277.69 292.887H277.702ZM259.056 294.379C259.283 295.119 259.605 295.501 260.417 294.558L258.972 294.463C258.972 292.899 258.758 291.287 259.713 289.843C259.76 289.771 259.51 289.509 259.307 289.198L257.612 291.645C256.31 290.905 255.487 289.413 253.78 289.867C255.916 290.953 256.74 293.484 259.044 294.379H259.056ZM273.894 305.636L274.599 304.144C273.023 304.669 273.023 304.669 273.966 305.565C273.596 306.269 273.226 306.973 272.868 307.642L271.841 307.26V309.229C273.226 308.489 274.133 309.325 275.028 309.874L276.855 306.09L276.067 305.063L273.894 305.636ZM277.034 322.552L277.452 322.432C277.631 321.155 277.81 319.878 278.049 318.242C277.714 317.789 277.129 316.905 276.449 316.105C276.365 315.998 275.828 316.272 275.184 316.475L276.628 317.968C276.771 319.722 276.903 321.107 277.034 322.528V322.552ZM279.171 314.864L278.801 312.846L276.33 314.112C276.938 315.258 277.75 315.688 279.159 314.84L279.171 314.864ZM267.281 313.324L269.752 310.71C267.902 311.032 267.162 311.485 267.269 313.3L267.281 313.324ZM277.726 311.557L280.078 310.256H277.726V311.557ZM271.757 306.185C271.244 305.648 270.91 305.29 270.48 304.824L268.988 306.185H271.757ZM275.482 312.536V312.846H276.7V312.536H275.482ZM279.612 299.715L279.23 299.751L279.338 300.909L279.768 300.861C279.791 300.455 279.72 300.073 279.672 299.691L279.612 299.715ZM273.345 296.54L273.751 296.492L273.608 295.382L273.178 295.43L273.345 296.54ZM230.096 287.921L230.143 288.351L231.182 288.207L231.146 287.861L230.096 287.921Z" fill="white"/>
<path d="M80.8411 404.729L81.5812 403.989L82.8108 404.574L83.3121 403.38L85.9623 404.873V408.931L83.336 409.301L80.8411 406.639V404.729Z" fill="white"/>
<path d="M338.082 403.237C337.617 403.142 336.972 403.201 336.721 402.915C335.396 401.399 334.095 399.739 332.877 397.997L332.758 397.806C335.91 399.608 336.315 400.038 337.975 403.297L338.082 403.237Z" fill="white"/>
<path d="M421.513 418.147L424.259 421.215C421.406 420.893 420.153 419.675 419.389 417.395L421.621 418.231L421.513 418.147Z" fill="white"/>
<path d="M419.281 422.624C417.61 423.698 417.61 423.722 415.712 422.313V419.186C416.559 420.797 417.049 422.671 419.377 422.671L419.281 422.624Z" fill="white"/>
<path d="M170.337 401.805V398.259L173.225 400.491L173.046 400.921L171.327 400.527L170.241 401.757L170.337 401.805Z" fill="white"/>
<path d="M419.365 422.683L418.183 419.508L421.907 422.6H419.257L419.365 422.683Z" fill="white"/>
<path d="M170.241 401.745L171.1 403.476L169.37 405.028L168.82 403.989L168.749 404.073C169.011 403.631 169.25 403.189 169.549 402.772C169.847 402.354 170.062 402.139 170.289 401.828L170.241 401.745Z" fill="white"/>
<path d="M394.69 339.121C394.654 339.574 394.618 340.028 394.559 341.055L392.84 339.3L394.75 339.204L394.69 339.121Z" fill="white"/>
<path d="M394.75 339.169C395.108 337.832 395.967 338.428 396.874 338.667L396.003 339.73L394.69 339.121L394.75 339.169Z" fill="white"/>
<path d="M412.501 414.614C413.838 414.363 414.148 414.745 413.862 416.058L412.501 414.614Z" fill="white"/>
<path d="M420.069 415.318L417.717 416.882C417.801 416.309 417.968 415.795 418.207 415.318L418.195 415.354C418.314 415.187 418.78 415.318 420.069 415.318Z" fill="white"/>
<path d="M86.9769 404.658L86.8456 403.512L87.2754 403.464L87.3828 404.622L86.9769 404.658Z" fill="white"/>
<path d="M65.9431 360.477L66.1102 359.379H66.4444L66.6116 360.465L65.9431 360.477Z" fill="white"/>
<path d="M94.1753 413.241L94.032 414.339H93.7216L93.5306 413.241H94.1753Z" fill="white"/>
<path d="M338.011 403.285L338.834 404.252L338.345 404.526C338.249 404.097 338.178 403.655 338.082 403.225L338.011 403.285Z" fill="white"/>
<path d="M393.257 354.831C391.144 354.413 391.085 354.329 390.918 351.798C391.705 352.813 392.481 353.816 393.257 354.831Z" fill="white"/>
</g>
</g>
<defs>
<clipPath id="clip0_1_2">
<rect width="512" height="512" fill="white"/>
</clipPath>
<clipPath id="clip1_1_2">
<rect width="382" height="382" fill="white" transform="translate(65 65)"/>
</clipPath>
</defs>
</svg>
